<?xml version="1.0" encoding="UTF-8" standalone="no"?>
<!-- Generator: Adobe Illustrator 19.1.0, SVG Export Plug-In . SVG Version: 6.00 Build 0)  -->
<svg xmlns:dc="http://purl.org/dc/elements/1.1/" xmlns:cc="http://creativecommons.org/ns#" xmlns:rdf="http://www.w3.org/1999/02/22-rdf-syntax-ns#" xmlns:svg="http://www.w3.org/2000/svg" xmlns="http://www.w3.org/2000/svg" xmlns:sodipodi="http://sodipodi.sourceforge.net/DTD/sodipodi-0.dtd" xmlns:inkscape="http://www.inkscape.org/namespaces/inkscape" version="1.1" id="Capa_1" x="0px" y="0px" viewBox="0 0 22.88 22.88" style="enable-background:new 0 0 22.88 22.88;" xml:space="preserve" width="512px" height="512px" sodipodi:docname="cross.svg" inkscape:version="0.92.1 r15371"><metadata id="metadata39"><rdf:RDF><cc:Work rdf:about=""><dc:format>image/svg+xml</dc:format><dc:type rdf:resource="http://purl.org/dc/dcmitype/StillImage"/></cc:Work></rdf:RDF></metadata><defs id="defs37"/><sodipodi:namedview pagecolor="#ffffff" bordercolor="#666666" borderopacity="1" objecttolerance="10" gridtolerance="10" guidetolerance="10" inkscape:pageopacity="0" inkscape:pageshadow="2" inkscape:window-width="640" inkscape:window-height="480" id="namedview35" showgrid="false" inkscape:zoom="0.4609375" inkscape:cx="218.0339" inkscape:cy="256" inkscape:window-x="0" inkscape:window-y="0" inkscape:window-maximized="0" inkscape:current-layer="Capa_1"/><path d="M0.324,1.909c-0.429-0.429-0.429-1.143,0-1.587c0.444-0.429,1.143-0.429,1.587,0l9.523,9.539  l9.539-9.539c0.429-0.429,1.143-0.429,1.571,0c0.444,0.444,0.444,1.159,0,1.587l-9.523,9.524l9.523,9.539  c0.444,0.429,0.444,1.143,0,1.587c-0.429,0.429-1.143,0.429-1.571,0l-9.539-9.539l-9.523,9.539c-0.444,0.429-1.143,0.429-1.587,0  c-0.429-0.444-0.429-1.159,0-1.587l9.523-9.539L0.324,1.909z" fill="#868686" id="path2" style="fill:#ffffff"/><g id="g4"/><g id="g6"/><g id="g8"/><g id="g10"/><g id="g12"/><g id="g14"/><g id="g16"/><g id="g18"/><g id="g20"/><g id="g22"/><g id="g24"/><g id="g26"/><g id="g28"/><g id="g30"/><g id="g32"/></svg>