<?xml version="1.0" encoding="UTF-8"?>
<!-- Generator: Adobe Illustrator 21.1.0, SVG Export Plug-In . SVG Version: 6.00 Build 0)  -->
<svg version="1.1" id="Слой_1" xmlns="http://www.w3.org/2000/svg" xmlns:xlink="http://www.w3.org/1999/xlink" x="0px" y="0px" viewBox="0 0 63.7 40.9" style="enable-background:new 0 0 63.7 40.9;" xml:space="preserve">
<style type="text/css">
	.st0{fill:#FFFFFF;}
</style>
<path class="st0" d="M26.7,17.1h10.6c1.5,0,2.7-1.2,2.7-2.7V3.8c0-1.5-1.2-2.7-2.7-2.7H26.7c-1.5,0-2.7,1.2-2.7,2.7v10.6  C24,15.9,25.2,17.1,26.7,17.1z M62.6,26.4c0-1.5-1.2-2.7-2.7-2.7H49.3c-1.5,0-2.7,1.2-2.7,2.7V37c0,1.5,1.2,2.7,2.7,2.7h10.6  c1.5,0,2.7-1.2,2.7-2.7V26.4z M62.6,3.8c0-1.5-1.2-2.7-2.7-2.7H49.3c-1.5,0-2.7,1.2-2.7,2.7v10.6c0,1.5,1.2,2.7,2.7,2.7h10.6  c1.5,0,2.7-1.2,2.7-2.7V3.8z M4.1,39.7h10.6c1.5,0,2.7-1.2,2.7-2.7V26.4c0-1.5-1.2-2.7-2.7-2.7H4.1c-1.5,0-2.7,1.2-2.7,2.7V37  C1.4,38.5,2.6,39.7,4.1,39.7z M4.1,17.1h10.6c1.5,0,2.7-1.2,2.7-2.7V3.8c0-1.5-1.2-2.7-2.7-2.7H4.1c-1.5,0-2.7,1.2-2.7,2.7v10.6  C1.4,15.9,2.6,17.1,4.1,17.1z M24,37c0,1.5,1.2,2.7,2.7,2.7h10.6c1.5,0,2.7-1.2,2.7-2.7V26.4c0-1.5-1.2-2.7-2.7-2.7H26.7  c-1.5,0-2.7,1.2-2.7,2.7V37z"/>
</svg>